<svg class="WeatherDetailsListItem--icon--1k0UH Icon--icon--3wCKh Icon--darkTheme--3iVDF" set="current-conditions" name="temp" theme="dark" data-testid="Icon" aria-hidden="true" role="img" viewBox="0 0 24 24"><title>Temperature</title><path d="M10.333 15.48v.321c.971.357 1.667 1.322 1.667 2.456 0 1.438-1.12 2.604-2.5 2.604S7 19.695 7 18.257c0-1.134.696-2.099 1.667-2.456v-.322a2.084 2.084 0 0 1-1.25-1.91V5.583a2.083 2.083 0 1 1 4.166 0v7.986c0 .855-.514 1.589-1.25 1.91zM15.8 8.1a2.8 2.8 0 1 1 0-5.6 2.8 2.8 0 0 1 0 5.6zm0-1.85a1 1 0 1 0 0-2 1 1 0 0 0 0 2z"></path></svg>